# xmcd CD database file generated by Grip 3.2.0
# 
# Track frame offsets:
#       150
#       25543
#       52747
#       68801
#       79602
#       111712
#       130963
#       145892
#       164671
#       181824
#       249883
#       297838
#       328641
# 
# Disc length: 4686 seconds
# 
# Revision: 2
# Processed by: cddbd v1.5.1PL0 Copyright (c) Steve Scherf et al.
# Submitted via: Grip 3.2.0
# 
DISCID=b2124c0d
DTITLE=Eric Clapton - Further On Up The Crossroads - Disc 2
DYEAR=1900
DGENRE=Blues
TTITLE0=Bell Bottom Blues
TTITLE1=Key To The Highway
TTITLE2=Dobro Jam #1 (Give Me Strength #1)
TTITLE3=Dobro Jam #2 (Give Me Strength #2)
TTITLE4=Blues Jam In Fm
TTITLE5=Blues Jam In Dm
TTITLE6=Gypsy (Please Be With Me)
TTITLE7=Motherless Children (Jam)
TTITLE8=Something You Got (Jam)
TTITLE9=Jam In E
TTITLE10=Meet Me (In The Bootom) (Instrumental Jam)
TTITLE11=Meet Me (In The Bottom) (Vocal)
TTITLE12=Fool Like You
EXTD=
EXTT0=
EXTT1=
EXTT2=
EXTT3=
EXTT4=
EXTT5=
EXTT6=
EXTT7=
EXTT8=
EXTT9=
EXTT10=
EXTT11=
EXTT12=
PLAYORDER=
